<?xml version="1.0" encoding="utf-8" ?><svg xmlns="http://www.w3.org/2000/svg" xmlns:xlink="http://www.w3.org/1999/xlink" width="1024" height="1024"><defs><linearGradient id="gradient_0" gradientTransform="matrix(731.429 731.429 -731.429 731.429 -146.286 146.286)" gradientUnits="userSpaceOnUse" x1="0" y1="0" x2="1" y2="0"><stop offset="0" stop-color="#F97216"/><stop offset="1" stop-color="#F9BF23"/></linearGradient></defs><rect fill="url(#gradient_0)" width="1024" height="1024" rx="224" ry="224"/><defs><radialGradient id="gradient_1" gradientTransform="matrix(1090.91 0 0 1090.91 0 0)" gradientUnits="userSpaceOnUse" r="0.5" cx="0" cy="0"><stop offset="0" stop-color="#FFF"/><stop offset="1" stop-color="#FBEDD1"/></radialGradient></defs><circle fill="url(#gradient_1)" transform="matrix(1 0 0 1 212 212)" cx="300" cy="300" r="300"/><path fill="#FABF24" fill-opacity="0.28" transform="matrix(1 0 0 1 205 205)" d="M614 307Q613.9999 179.8364 524.0817 89.9182Q434.1635 0 307 0Q179.8364 0 89.9182 89.9182Q0 179.8364 0 307Q0 434.1635 89.9182 524.0817Q179.8364 613.9999 307 614Q434.1635 613.9999 524.0817 524.0817Q613.9999 434.1635 614 307ZM195.8354 26.2039Q249.3955 5 307 5Q364.6045 5 418.1646 26.2039Q476.3193 49.2269 520.5463 93.4538Q564.7734 137.6814 587.7961 195.8354Q609 249.3958 609 307Q609 364.6038 587.7961 418.1646Q564.7734 476.3188 520.5463 520.5463Q476.3188 564.7734 418.1646 587.7961Q364.604 609 307 609Q249.396 609 195.8354 587.7961Q137.6814 564.7734 93.4538 520.5463Q49.2269 476.3198 26.2039 418.1646Q5 364.604 5 307Q5 249.3955 26.2039 195.8354Q49.2269 137.6807 93.4538 93.4538Q137.6805 49.2268 195.8354 26.2039Z" fill-rule="evenodd"/><clipPath id="clip_0"><rect width="1024" height="1024" rx="224" ry="224"/></clipPath><g clip-path="url(#clip_0)"><g opacity="0.72"><circle fill="#FBBF24" transform="matrix(1 0 0 1 370 304)" cx="180" cy="180" r="180"/></g></g><circle fill="#FFF" transform="matrix(1 0 0 1 302 345)" cx="180" cy="180" r="180"/></svg>
