<?xml version="1.0" encoding="utf-8" ?><svg xmlns="http://www.w3.org/2000/svg" xmlns:xlink="http://www.w3.org/1999/xlink" width="64" height="64"><defs><linearGradient id="gradient_0" gradientTransform="matrix(45.7143 45.7143 -45.7143 45.7143 -9.14286 9.14286)" gradientUnits="userSpaceOnUse" x1="0" y1="0" x2="1" y2="0"><stop offset="0" stop-color="#F97216"/><stop offset="1" stop-color="#F9BF23"/></linearGradient></defs><rect fill="url(#gradient_0)" width="64" height="64" rx="14" ry="14"/><defs><radialGradient id="gradient_1" gradientTransform="matrix(65.4545 0 0 65.4545 0 0)" gradientUnits="userSpaceOnUse" r="0.5" cx="0" cy="0"><stop offset="0" stop-color="#FFF"/><stop offset="1" stop-color="#FBEDD1"/></radialGradient></defs><circle fill="url(#gradient_1)" transform="matrix(1 0 0 1 14 14)" cx="18" cy="18" r="18"/><path fill="#FABF24" fill-opacity="0.28" transform="matrix(1 0 0 1 12 12)" d="M40 20Q40 11.7157 34.1421 5.8579Q28.2843 0 20 0Q11.7157 0 5.8579 5.8579Q0 11.7157 0 20Q0 28.2843 5.8579 34.1421Q11.7157 40 20 40Q28.2843 40 34.1421 34.1421Q40 28.2843 40 20ZM6.7064 6.7064Q12.2128 1.2 20 1.2Q27.7872 1.2 33.2936 6.7064Q38.8 12.2128 38.8 20Q38.8 27.7872 33.2936 33.2936Q27.7872 38.8 20 38.8Q12.2128 38.8 6.7064 33.2936Q1.2 27.7872 1.2 20Q1.2 12.2128 6.7064 6.7064Z" fill-rule="evenodd"/><circle fill="#FBBF24" transform="matrix(1 0 0 1 23 19)" cx="11" cy="11" r="11"/><circle fill="#FFF" transform="matrix(1 0 0 1 19 22)" cx="11" cy="11" r="11"/></svg>
