<svg xmlns="http://www.w3.org/2000/svg" style="display:none">
  <!-- 金融类 -->
  <symbol id="icon-bank-card" viewBox="0 0 24 24" fill="none" stroke="currentColor" stroke-width="1.5" stroke-linecap="round" stroke-linejoin="round"><rect x="2" y="4" width="20" height="16" rx="3"/><line x1="2" y1="10" x2="22" y2="10"/></symbol>
  <symbol id="icon-credit-card" viewBox="0 0 24 24" fill="none" stroke="currentColor" stroke-width="1.5" stroke-linecap="round" stroke-linejoin="round"><rect x="2" y="4" width="20" height="16" rx="3"/><line x1="2" y1="10" x2="22" y2="10"/><line x1="6" y1="15" x2="10" y2="15"/></symbol>
  <symbol id="icon-wallet" viewBox="0 0 24 24" fill="none" stroke="currentColor" stroke-width="1.5" stroke-linecap="round" stroke-linejoin="round"><rect x="2" y="5" width="20" height="14" rx="3"/><path d="M16 12.5a.5.5 0 1 0 0-1 .5.5 0 0 0 0 1z" fill="currentColor" stroke="none"/><path d="M2 9h20"/></symbol>
  <symbol id="icon-cash" viewBox="0 0 24 24" fill="none" stroke="currentColor" stroke-width="1.5" stroke-linecap="round" stroke-linejoin="round"><rect x="2" y="5" width="20" height="14" rx="2"/><circle cx="12" cy="12" r="3"/><line x1="5" y1="12" x2="5.01" y2="12"/><line x1="19" y1="12" x2="19.01" y2="12"/></symbol>
  <symbol id="icon-coins" viewBox="0 0 24 24" fill="none" stroke="currentColor" stroke-width="1.5" stroke-linecap="round" stroke-linejoin="round"><circle cx="9" cy="14" r="6"/><circle cx="15" cy="10" r="6"/></symbol>
  <symbol id="icon-piggy-bank" viewBox="0 0 24 24" fill="none" stroke="currentColor" stroke-width="1.5" stroke-linecap="round" stroke-linejoin="round"><path d="M19 10c0-4-3.5-7-8-7S3 6 3 10c0 2.5 1.5 4.5 3.5 5.5L6 19h2l.5-2h7l.5 2h2l-.5-3.5C19 14.5 19 12.5 19 10z"/><circle cx="8" cy="9" r="1" fill="currentColor" stroke="none"/><path d="M21 10h-2"/></symbol>
  <symbol id="icon-chart-up" viewBox="0 0 24 24" fill="none" stroke="currentColor" stroke-width="1.5" stroke-linecap="round" stroke-linejoin="round"><polyline points="22 7 13.5 15.5 8.5 10.5 2 17"/><polyline points="16 7 22 7 22 13"/></symbol>
  <symbol id="icon-stock" viewBox="0 0 24 24" fill="none" stroke="currentColor" stroke-width="1.5" stroke-linecap="round" stroke-linejoin="round"><line x1="12" y1="20" x2="12" y2="10"/><line x1="18" y1="20" x2="18" y2="4"/><line x1="6" y1="20" x2="6" y2="14"/></symbol>
  <symbol id="icon-fund" viewBox="0 0 24 24" fill="none" stroke="currentColor" stroke-width="1.5" stroke-linecap="round" stroke-linejoin="round"><path d="M2 20l5-10 4 5 5-8 6 13"/></symbol>
  <symbol id="icon-gold" viewBox="0 0 24 24" fill="none" stroke="currentColor" stroke-width="1.5" stroke-linecap="round" stroke-linejoin="round"><path d="M5 18h14l3-8H2l3 8z"/><path d="M8 10l2-6h4l2 6"/></symbol>
  <symbol id="icon-diamond" viewBox="0 0 24 24" fill="none" stroke="currentColor" stroke-width="1.5" stroke-linecap="round" stroke-linejoin="round"><path d="M6 3h12l4 7-10 11L2 10z"/><path d="M2 10h20"/><path d="M12 21L8.5 10 12 3l3.5 7L12 21z"/></symbol>
  <symbol id="icon-safe" viewBox="0 0 24 24" fill="none" stroke="currentColor" stroke-width="1.5" stroke-linecap="round" stroke-linejoin="round"><rect x="3" y="3" width="18" height="18" rx="2"/><circle cx="12" cy="12" r="4"/><line x1="12" y1="8" x2="12" y2="12"/><line x1="12" y1="12" x2="14" y2="14"/></symbol>

  <!-- 生活类 -->
  <symbol id="icon-home" viewBox="0 0 24 24" fill="none" stroke="currentColor" stroke-width="1.5" stroke-linecap="round" stroke-linejoin="round"><path d="M3 12l9-9 9 9"/><path d="M5 10v9a1 1 0 0 0 1 1h4v-5h4v5h4a1 1 0 0 0 1-1v-9"/></symbol>
  <symbol id="icon-car" viewBox="0 0 24 24" fill="none" stroke="currentColor" stroke-width="1.5" stroke-linecap="round" stroke-linejoin="round"><path d="M5 17h14v-5l-2-5H7L5 12v5z"/><circle cx="7.5" cy="17" r="1.5"/><circle cx="16.5" cy="17" r="1.5"/><line x1="5" y1="12" x2="19" y2="12"/></symbol>
  <symbol id="icon-phone" viewBox="0 0 24 24" fill="none" stroke="currentColor" stroke-width="1.5" stroke-linecap="round" stroke-linejoin="round"><rect x="6" y="2" width="12" height="20" rx="3"/><line x1="10" y1="18" x2="14" y2="18"/></symbol>
  <symbol id="icon-laptop" viewBox="0 0 24 24" fill="none" stroke="currentColor" stroke-width="1.5" stroke-linecap="round" stroke-linejoin="round"><rect x="3" y="4" width="18" height="12" rx="2"/><line x1="2" y1="20" x2="22" y2="20"/></symbol>
  <symbol id="icon-shopping" viewBox="0 0 24 24" fill="none" stroke="currentColor" stroke-width="1.5" stroke-linecap="round" stroke-linejoin="round"><path d="M6 6h15l-1.5 9H7.5z"/><circle cx="9" cy="20" r="1"/><circle cx="18" cy="20" r="1"/><path d="M2 2h3l1 4"/></symbol>
  <symbol id="icon-food" viewBox="0 0 24 24" fill="none" stroke="currentColor" stroke-width="1.5" stroke-linecap="round" stroke-linejoin="round"><path d="M18 8h1a4 4 0 0 1 0 8h-1"/><path d="M2 8h16v9a4 4 0 0 1-4 4H6a4 4 0 0 1-4-4V8z"/><line x1="6" y1="1" x2="6" y2="4"/><line x1="10" y1="1" x2="10" y2="4"/><line x1="14" y1="1" x2="14" y2="4"/></symbol>
  <symbol id="icon-coffee" viewBox="0 0 24 24" fill="none" stroke="currentColor" stroke-width="1.5" stroke-linecap="round" stroke-linejoin="round"><path d="M17 8h1a4 4 0 1 1 0 8h-1"/><path d="M3 8h14v9a4 4 0 0 1-4 4H7a4 4 0 0 1-4-4V8z"/><line x1="6" y1="2" x2="6" y2="5"/><line x1="10" y1="2" x2="10" y2="5"/></symbol>
  <symbol id="icon-medical" viewBox="0 0 24 24" fill="none" stroke="currentColor" stroke-width="1.5" stroke-linecap="round" stroke-linejoin="round"><path d="M4.8 2.3A2 2 0 0 0 3 4.3v15.4a2 2 0 0 0 1.8 2h12.4a2 2 0 0 0 1.8-2V4.3a2 2 0 0 0-1.8-2z" transform="translate(2,0)"/><line x1="12" y1="8" x2="12" y2="16"/><line x1="8" y1="12" x2="16" y2="12"/></symbol>
  <symbol id="icon-education" viewBox="0 0 24 24" fill="none" stroke="currentColor" stroke-width="1.5" stroke-linecap="round" stroke-linejoin="round"><path d="M22 10l-10-5L2 10l10 5 10-5z"/><path d="M6 12v5c3 3 9 3 12 0v-5"/></symbol>
  <symbol id="icon-travel" viewBox="0 0 24 24" fill="none" stroke="currentColor" stroke-width="1.5" stroke-linecap="round" stroke-linejoin="round"><circle cx="12" cy="12" r="10"/><line x1="2" y1="12" x2="22" y2="12"/><path d="M12 2a15.3 15.3 0 0 1 4 10 15.3 15.3 0 0 1-4 10 15.3 15.3 0 0 1-4-10 15.3 15.3 0 0 1 4-10z"/></symbol>
  <symbol id="icon-pet" viewBox="0 0 24 24" fill="none" stroke="currentColor" stroke-width="1.5" stroke-linecap="round" stroke-linejoin="round"><circle cx="7" cy="6" r="2"/><circle cx="17" cy="6" r="2"/><circle cx="4" cy="12" r="2"/><circle cx="20" cy="12" r="2"/><path d="M12 22c-3 0-5-2.5-5-5 0-3 2-4 5-7 3 3 5 4 5 7 0 2.5-2 5-5 5z"/></symbol>
  <symbol id="icon-gift" viewBox="0 0 24 24" fill="none" stroke="currentColor" stroke-width="1.5" stroke-linecap="round" stroke-linejoin="round"><rect x="3" y="10" width="18" height="11" rx="1"/><rect x="2" y="6" width="20" height="4" rx="1"/><line x1="12" y1="6" x2="12" y2="21"/><path d="M12 6C12 4 10 2 8 2s-2 2 0 4h4z"/><path d="M12 6c0-2 2-4 4-4s2 2 0 4h-4z"/></symbol>

  <!-- 其他类 -->
  <symbol id="icon-debt" viewBox="0 0 24 24" fill="none" stroke="currentColor" stroke-width="1.5" stroke-linecap="round" stroke-linejoin="round"><path d="M12 2v20"/><path d="M17 5H9.5a3.5 3.5 0 0 0 0 7h5a3.5 3.5 0 0 1 0 7H6"/></symbol>
  <symbol id="icon-transfer" viewBox="0 0 24 24" fill="none" stroke="currentColor" stroke-width="1.5" stroke-linecap="round" stroke-linejoin="round"><polyline points="17 1 21 5 17 9"/><line x1="3" y1="5" x2="21" y2="5"/><polyline points="7 23 3 19 7 15"/><line x1="21" y1="19" x2="3" y2="19"/></symbol>
  <symbol id="icon-receipt" viewBox="0 0 24 24" fill="none" stroke="currentColor" stroke-width="1.5" stroke-linecap="round" stroke-linejoin="round"><path d="M4 2v20l3-2 3 2 3-2 3 2 3-2 1-1V2H4z"/><line x1="8" y1="7" x2="16" y2="7"/><line x1="8" y1="11" x2="16" y2="11"/><line x1="8" y1="15" x2="12" y2="15"/></symbol>
  <symbol id="icon-tag" viewBox="0 0 24 24" fill="none" stroke="currentColor" stroke-width="1.5" stroke-linecap="round" stroke-linejoin="round"><path d="M20.59 13.41l-7.17 7.17a2 2 0 0 1-2.83 0L2 12V2h10l8.59 8.59a2 2 0 0 1 0 2.82z"/><circle cx="7" cy="7" r="1" fill="currentColor" stroke="none"/></symbol>
  <symbol id="icon-star" viewBox="0 0 24 24" fill="none" stroke="currentColor" stroke-width="1.5" stroke-linecap="round" stroke-linejoin="round"><polygon points="12 2 15.09 8.26 22 9.27 17 14.14 18.18 21.02 12 17.77 5.82 21.02 7 14.14 2 9.27 8.91 8.26 12 2"/></symbol>
  <symbol id="icon-heart" viewBox="0 0 24 24" fill="none" stroke="currentColor" stroke-width="1.5" stroke-linecap="round" stroke-linejoin="round"><path d="M20.84 4.61a5.5 5.5 0 0 0-7.78 0L12 5.67l-1.06-1.06a5.5 5.5 0 0 0-7.78 7.78L12 21.23l8.84-8.84a5.5 5.5 0 0 0 0-7.78z"/></symbol>
  <symbol id="icon-umbrella" viewBox="0 0 24 24" fill="none" stroke="currentColor" stroke-width="1.5" stroke-linecap="round" stroke-linejoin="round"><path d="M12 2v20"/><path d="M22 12a10 10 0 0 0-20 0z"/><path d="M12 22a2 2 0 0 1-2-2"/></symbol>
  <symbol id="icon-briefcase" viewBox="0 0 24 24" fill="none" stroke="currentColor" stroke-width="1.5" stroke-linecap="round" stroke-linejoin="round"><rect x="2" y="7" width="20" height="14" rx="2"/><path d="M16 7V5a2 2 0 0 0-2-2h-4a2 2 0 0 0-2 2v2"/><line x1="2" y1="13" x2="22" y2="13"/></symbol>
  <symbol id="icon-tool" viewBox="0 0 24 24" fill="none" stroke="currentColor" stroke-width="1.5" stroke-linecap="round" stroke-linejoin="round"><path d="M14.7 6.3a1 1 0 0 0 0 1.4l1.6 1.6a1 1 0 0 0 1.4 0l3.77-3.77a6 6 0 0 1-7.94 7.94l-6.91 6.91a2.12 2.12 0 0 1-3-3l6.91-6.91a6 6 0 0 1 7.94-7.94l-3.76 3.76z"/></symbol>
  <symbol id="icon-music" viewBox="0 0 24 24" fill="none" stroke="currentColor" stroke-width="1.5" stroke-linecap="round" stroke-linejoin="round"><path d="M9 18V5l12-2v13"/><circle cx="6" cy="18" r="3"/><circle cx="18" cy="16" r="3"/></symbol>
  <symbol id="icon-game" viewBox="0 0 24 24" fill="none" stroke="currentColor" stroke-width="1.5" stroke-linecap="round" stroke-linejoin="round"><rect x="3" y="6" width="18" height="12" rx="4"/><line x1="8" y1="10" x2="8" y2="14"/><line x1="6" y1="12" x2="10" y2="12"/><circle cx="16" cy="10" r=".5" fill="currentColor"/><circle cx="16" cy="14" r=".5" fill="currentColor"/></symbol>
  <symbol id="icon-more" viewBox="0 0 24 24" fill="none" stroke="currentColor" stroke-width="1.5" stroke-linecap="round" stroke-linejoin="round"><circle cx="12" cy="12" r="1.5" fill="currentColor" stroke="none"/><circle cx="5" cy="12" r="1.5" fill="currentColor" stroke="none"/><circle cx="19" cy="12" r="1.5" fill="currentColor" stroke="none"/></symbol>
</svg>
